<svg width="72" height="88" viewBox="0 0 72 88" fill="none" xmlns="http://www.w3.org/2000/svg">
<path fill-rule="evenodd" clip-rule="evenodd" d="M8.03263 0.00999024C7.03713 0.10299 6.18443 1.02259 6.18883 2.00999V7.00999H2.12633H1.90763C0.847226 7.06699 -0.0566745 8.08789 0.00132555 9.13499C0.0593255 10.182 1.06603 11.0672 2.12633 11.01H6.18883V17.01H2.12633H1.90763C0.847226 17.067 -0.0566745 18.0879 0.00132555 19.135C0.0593255 20.182 1.06603 21.0673 2.12633 21.01H6.18883V27.01H2.12633H1.90763C0.847226 27.067 -0.0566745 28.0879 0.00132555 29.135C0.0593255 30.182 1.06603 31.0673 2.12633 31.01H6.18883V37.0099H2.12633H1.90763C0.847226 37.0669 -0.0566745 38.0878 0.00132555 39.1349C0.0593255 40.182 1.06603 41.0672 2.12633 41.0099H6.18883V46.01H2.12633H1.90763C0.847226 46.067 -0.0566745 47.0879 0.00132555 48.135C0.0593255 49.182 1.06603 50.0672 2.12633 50.01H6.18883V56.01H2.12633H1.90763C0.847226 56.067 -0.0566745 57.0567 0.00132555 58.1037C0.0593255 59.1507 1.06603 60.0673 2.12633 60.01H6.18883V66.01H2.12633H1.90763C0.847226 66.067 -0.0566745 67.0567 0.00132555 68.1037C0.0593255 69.1507 1.06603 70.0673 2.12633 70.01H6.18883V76.01H2.12633H1.90763C0.847226 76.067 -0.0566745 77.0567 0.00132555 78.1037C0.0593255 79.1508 1.06603 80.0673 2.12633 80.01H6.18883V86.01C6.18883 87.0569 7.15983 88.01 8.22013 88.01H69.9701C71.0303 88.01 72.0013 87.0568 72.0013 86.01V2.00999C72.0013 0.96299 71.0303 0.00999024 69.9701 0.00999024C49.3961 -0.0350098 28.8376 0.00999024 8.22013 0.00999024H8.03263ZM58.8451 4.00999H67.9388V84.01H58.8451V4.00999Z" fill="black"/>
</svg>
