<svg width="45" height="45" viewBox="0 0 45 45" fill="none" xmlns="http://www.w3.org/2000/svg">
<path d="M22.1133 0C17.7395 0.000193824 13.4641 1.29734 9.82753 3.7274C6.19099 6.15746 3.3567 9.61131 1.68308 13.6522C0.00945079 17.693 -0.428346 22.1395 0.425049 26.4291C1.27844 30.7188 3.3847 34.6591 6.47747 37.7518C9.57025 40.8444 13.5106 42.9505 17.8004 43.8037C22.0901 44.6569 26.5365 44.2189 30.5773 42.5451C34.6181 40.8713 38.0718 38.0368 40.5017 34.4002C42.9316 30.7635 44.2285 26.488 44.2285 22.1143C44.2217 16.2511 41.8895 10.6301 37.7436 6.48427C33.5976 2.33849 27.9764 0.00653453 22.1133 0ZM22.1133 42.2285C18.1351 42.2283 14.2463 41.0485 10.9387 38.8382C7.63103 36.6279 5.05309 33.4864 3.53084 29.811C2.00859 26.1356 1.6104 22.0913 2.38662 18.1896C3.16284 14.2878 5.07862 10.7039 7.89169 7.89098C10.7048 5.07805 14.2888 3.16245 18.1905 2.38642C22.0923 1.61038 26.1365 2.00877 29.8119 3.5312C33.4872 5.05363 36.6286 7.63173 38.8387 10.9395C41.0489 14.2472 42.2285 18.1361 42.2285 22.1143C42.2224 27.4472 40.1012 32.5599 36.3301 36.3308C32.5591 40.1017 27.4462 42.2227 22.1133 42.2285Z" fill="black"/>
<path d="M30.1738 14.0537C30.081 13.9608 29.9708 13.8872 29.8495 13.8369C29.7282 13.7866 29.5981 13.7607 29.4668 13.7607C29.3355 13.7607 29.2055 13.7866 29.0842 13.8369C28.9628 13.8872 28.8526 13.9608 28.7598 14.0537L22.1138 20.7001L15.4678 14.0537C15.3749 13.9609 15.2647 13.8872 15.1434 13.837C15.0221 13.7867 14.8921 13.7608 14.7608 13.7608C14.6294 13.7608 14.4994 13.7867 14.3781 13.837C14.2568 13.8872 14.1466 13.9609 14.0537 14.0537C13.9609 14.1466 13.8872 14.2568 13.837 14.3781C13.7867 14.4994 13.7609 14.6294 13.7609 14.7607C13.7609 15.0259 13.8662 15.2803 14.0537 15.4678L20.6998 22.1143L14.0537 28.7607C13.8662 28.9483 13.7609 29.2026 13.7609 29.4678C13.7609 29.733 13.8662 29.9873 14.0537 30.1748C14.2412 30.3623 14.4956 30.4677 14.7608 30.4677C15.0259 30.4677 15.2803 30.3623 15.4678 30.1748L22.1138 23.5284L28.7598 30.1748C28.9473 30.3623 29.2016 30.4677 29.4668 30.4677C29.732 30.4677 29.9863 30.3623 30.1739 30.1748C30.3614 29.9873 30.4667 29.733 30.4667 29.4678C30.4667 29.2026 30.3614 28.9483 30.1738 28.7607L23.5278 22.1143L30.1738 15.4678C30.2667 15.3749 30.3404 15.2647 30.3907 15.1434C30.4409 15.0221 30.4668 14.8921 30.4668 14.7607C30.4668 14.6294 30.4409 14.4994 30.3907 14.3781C30.3404 14.2568 30.2667 14.1465 30.1738 14.0537Z" fill="black"/>
</svg>
