<svg width="89" height="88" viewBox="0 0 89 88" fill="none" xmlns="http://www.w3.org/2000/svg">
<path d="M54.7042 22C55.2903 22.0456 55.8588 22.2217 56.368 22.5156C56.8771 22.8094 57.3141 23.2135 57.6467 23.6981L68.3649 42.3019C68.6182 42.8321 68.7497 43.4123 68.7497 44C68.7497 44.5877 68.6182 45.1679 68.3649 45.6981L67.7599 46.75H70.9017C71.3133 45.8298 71.5134 44.829 71.4872 43.8213C71.461 42.8135 71.2093 41.8245 70.7505 40.9269L60.0324 22.3231C59.454 21.4228 58.6686 20.674 57.7416 20.1394C56.8147 19.6047 55.7732 19.2998 54.7042 19.25H34.1618L35.7499 22H54.7042Z" fill="black"/>
<path d="M33.2955 66C32.7094 65.9544 32.1409 65.7783 31.6318 65.4844C31.1226 65.1906 30.6857 64.7865 30.353 64.3019L19.6349 45.6981C19.3816 45.1679 19.2501 44.5877 19.2501 44C19.2501 43.4123 19.3816 42.8321 19.6349 42.3019L20.2399 41.25H17.098C16.6864 42.1702 16.4864 43.171 16.5125 44.1787C16.5387 45.1865 16.7905 46.1755 17.2493 47.0731L27.9674 65.6769C28.5457 66.5772 29.3312 67.326 30.2581 67.8606C31.1851 68.3953 32.2266 68.7002 33.2955 68.75H53.838L52.2499 66H33.2955Z" fill="black"/>
<path d="M51.0468 27.5H41.9374C41.5727 27.5 41.223 27.6449 40.9651 27.9027C40.7072 28.1606 40.5624 28.5103 40.5624 28.875C40.5624 29.2397 40.7072 29.5894 40.9651 29.8473C41.223 30.1051 41.5727 30.25 41.9374 30.25H51.0468C51.9886 30.25 52.0161 30.2913 52.1468 30.4975L57.2549 39.1875C57.3369 39.3585 57.4534 39.5106 57.597 39.6344C57.7406 39.7582 57.9083 39.8509 58.0895 39.9068C58.2707 39.9627 58.4615 39.9805 58.6499 39.9591C58.8383 39.9377 59.0202 39.8775 59.1843 39.7824C59.3483 39.6873 59.4909 39.5593 59.6031 39.4065C59.7153 39.2536 59.7947 39.0792 59.8362 38.8942C59.8778 38.7092 59.8806 38.5176 59.8446 38.3315C59.8085 38.1453 59.7344 37.9686 59.6268 37.8125L54.4911 29.0606C53.5011 27.5 52.0849 27.5 51.0468 27.5Z" fill="black"/>
<path d="M79.0624 74.9375C78.2465 74.9375 77.449 75.1794 76.7706 75.6327C76.0923 76.086 75.5636 76.7302 75.2514 77.4839C74.9392 78.2377 74.8575 79.0671 75.0166 79.8672C75.1758 80.6674 75.5687 81.4024 76.1456 81.9793C76.7225 82.5562 77.4575 82.9491 78.2576 83.1082C79.0578 83.2674 79.8872 83.1857 80.6409 82.8735C81.3947 82.5613 82.0389 82.0326 82.4922 81.3542C82.9454 80.6759 83.1874 79.8783 83.1874 79.0625C83.1874 77.9685 82.7528 76.9193 81.9792 76.1457C81.2056 75.3721 80.1564 74.9375 79.0624 74.9375ZM79.0624 80.4375C78.7904 80.4375 78.5246 80.3569 78.2985 80.2058C78.0723 80.0547 77.8961 79.8399 77.792 79.5887C77.688 79.3374 77.6607 79.061 77.7138 78.7942C77.7668 78.5275 77.8978 78.2825 78.0901 78.0902C78.2824 77.8979 78.5274 77.767 78.7941 77.7139C79.0608 77.6609 79.3373 77.6881 79.5886 77.7922C79.8398 77.8962 80.0546 78.0725 80.2056 78.2986C80.3567 78.5247 80.4374 78.7906 80.4374 79.0625C80.4374 79.4272 80.2925 79.7769 80.0346 80.0348C79.7768 80.2926 79.427 80.4375 79.0624 80.4375Z" fill="black"/>
<path d="M41.2499 72.875C40.434 72.875 39.6365 73.1169 38.9582 73.5702C38.2798 74.0235 37.7511 74.6677 37.4389 75.4214C37.1267 76.1752 37.045 77.0046 37.2041 77.8047C37.3633 78.6049 37.7562 79.3399 38.3331 79.9168C38.91 80.4937 39.645 80.8866 40.4451 81.0457C41.2453 81.2049 42.0747 81.1232 42.8284 80.811C43.5822 80.4988 44.2264 79.9701 44.6797 79.2917C45.133 78.6134 45.3749 77.8158 45.3749 77C45.3749 75.906 44.9403 74.8568 44.1667 74.0832C43.3931 73.3096 42.3439 72.875 41.2499 72.875ZM41.2499 78.375C40.9779 78.375 40.7121 78.2944 40.486 78.1433C40.2599 77.9922 40.0836 77.7774 39.9795 77.5262C39.8755 77.2749 39.8482 76.9985 39.9013 76.7317C39.9544 76.465 40.0853 76.22 40.2776 76.0277C40.4699 75.8354 40.7149 75.7045 40.9816 75.6514C41.2484 75.5984 41.5248 75.6256 41.7761 75.7297C42.0273 75.8337 42.2421 76.01 42.3932 76.2361C42.5442 76.4622 42.6249 76.7281 42.6249 77C42.6249 77.3647 42.48 77.7144 42.2222 77.9723C41.9643 78.2301 41.6146 78.375 41.2499 78.375Z" fill="black"/>
<path d="M9.62487 46.75C8.80902 46.75 8.0115 46.9919 7.33314 47.4452C6.65479 47.8985 6.12608 48.5427 5.81387 49.2964C5.50166 50.0502 5.41997 50.8796 5.57913 51.6797C5.7383 52.4799 6.13116 53.2149 6.70806 53.7918C7.28495 54.3687 8.01995 54.7616 8.82012 54.9207C9.6203 55.0799 10.4497 54.9982 11.2034 54.686C11.9572 54.3738 12.6014 53.8451 13.0547 53.1667C13.5079 52.4884 13.7499 51.6908 13.7499 50.875C13.7499 49.781 13.3153 48.7318 12.5417 47.9582C11.7681 47.1846 10.7189 46.75 9.62487 46.75ZM9.62487 52.25C9.35292 52.25 9.08708 52.1694 8.86096 52.0183C8.63485 51.8672 8.45861 51.6524 8.35454 51.4012C8.25047 51.1499 8.22324 50.8735 8.27629 50.6067C8.32935 50.34 8.4603 50.095 8.6526 49.9027C8.8449 49.7104 9.0899 49.5795 9.35662 49.5264C9.62335 49.4734 9.89981 49.5006 10.1511 49.6047C10.4023 49.7087 10.6171 49.885 10.7681 50.1111C10.9192 50.3372 10.9999 50.6031 10.9999 50.875C10.9999 51.2397 10.855 51.5894 10.5971 51.8473C10.3393 52.1051 9.98954 52.25 9.62487 52.25Z" fill="black"/>
<path d="M78.3749 39.875C79.1907 39.875 79.9882 39.6331 80.6666 39.1798C81.3449 38.7266 81.8737 38.0823 82.1859 37.3286C82.4981 36.5748 82.5798 35.7454 82.4206 34.9453C82.2614 34.1451 81.8686 33.4101 81.2917 32.8332C80.7148 32.2563 79.9798 31.8634 79.1796 31.7043C78.3794 31.5451 77.55 31.6268 76.7963 31.939C76.0426 32.2512 75.3983 32.7799 74.9451 33.4583C74.4918 34.1366 74.2499 34.9342 74.2499 35.75C74.2499 36.844 74.6845 37.8932 75.4581 38.6668C76.2316 39.4404 77.2809 39.875 78.3749 39.875ZM78.3749 34.375C78.6468 34.375 78.9127 34.4556 79.1388 34.6067C79.3649 34.7578 79.5411 34.9726 79.6452 35.2238C79.7493 35.4751 79.7765 35.7515 79.7235 36.0183C79.6704 36.285 79.5394 36.53 79.3471 36.7223C79.1548 36.9146 78.9098 37.0455 78.6431 37.0986C78.3764 37.1516 78.0999 37.1244 77.8487 37.0203C77.5974 36.9163 77.3827 36.74 77.2316 36.5139C77.0805 36.2878 76.9999 36.022 76.9999 35.75C76.9999 35.3853 77.1447 35.0356 77.4026 34.7777C77.6605 34.5199 78.0102 34.375 78.3749 34.375Z" fill="black"/>
<path d="M43.9999 15.125C44.8157 15.125 45.6133 14.8831 46.2916 14.4298C46.97 13.9766 47.4987 13.3323 47.8109 12.5786C48.1231 11.8248 48.2048 10.9954 48.0456 10.1953C47.8865 9.39508 47.4936 8.66008 46.9167 8.08319C46.3398 7.50629 45.6048 7.11343 44.8046 6.95426C44.0045 6.7951 43.1751 6.87679 42.4213 7.189C41.6676 7.50121 41.0233 8.02992 40.5701 8.70827C40.1168 9.38663 39.8749 10.1842 39.8749 11C39.8749 12.094 40.3095 13.1432 41.0831 13.9168C41.8566 14.6904 42.9059 15.125 43.9999 15.125ZM43.9999 9.625C44.2718 9.625 44.5377 9.70564 44.7638 9.85673C44.9899 10.0078 45.1661 10.2226 45.2702 10.4738C45.3743 10.7251 45.4015 11.0015 45.3485 11.2683C45.2954 11.535 45.1644 11.78 44.9722 11.9723C44.7799 12.1646 44.5349 12.2955 44.2681 12.3486C44.0014 12.4016 43.7249 12.3744 43.4737 12.2703C43.2224 12.1663 43.0077 11.99 42.8566 11.7639C42.7055 11.5378 42.6249 11.272 42.6249 11C42.6249 10.6353 42.7697 10.2856 43.0276 10.0277C43.2855 9.76987 43.6352 9.625 43.9999 9.625Z" fill="black"/>
<path d="M8.24987 13.4063C9.06572 13.4063 9.86325 13.1643 10.5416 12.7111C11.22 12.2578 11.7487 11.6136 12.0609 10.8598C12.3731 10.1061 12.4548 9.27668 12.2956 8.4765C12.1364 7.67633 11.7436 6.94133 11.1667 6.36444C10.5898 5.78754 9.85479 5.39468 9.05462 5.23551C8.25445 5.07635 7.42505 5.15804 6.6713 5.47025C5.91756 5.78246 5.27332 6.31117 4.82006 6.98952C4.3668 7.66788 4.12487 8.4654 4.12487 9.28125C4.12487 10.3753 4.55947 11.4245 5.33306 12.1981C6.10665 12.9717 7.15586 13.4063 8.24987 13.4063ZM8.24987 7.90625C8.52182 7.90625 8.78767 7.98689 9.01378 8.13798C9.2399 8.28907 9.41614 8.50381 9.52021 8.75506C9.62428 9.00631 9.65151 9.28278 9.59845 9.5495C9.5454 9.81623 9.41444 10.0612 9.22215 10.2535C9.02985 10.4458 8.78485 10.5768 8.51812 10.6298C8.2514 10.6829 7.97493 10.6557 7.72368 10.5516C7.47244 10.4475 7.25769 10.2713 7.1066 10.0452C6.95552 9.81904 6.87487 9.5532 6.87487 9.28125C6.87487 8.91658 7.01974 8.56684 7.2776 8.30898C7.53547 8.05112 7.8852 7.90625 8.24987 7.90625Z" fill="black"/>
<path d="M7.32862 27.94L12.3749 36.6919C12.7137 37.2338 13.1821 37.6828 13.7378 37.9985C14.2935 38.3141 14.919 38.4865 15.558 38.5H25.6917C26.3307 38.4865 26.9563 38.3141 27.512 37.9985C28.0677 37.6828 28.5361 37.2338 28.8749 36.6919L33.9486 27.94C34.2489 27.3834 34.4061 26.7609 34.4061 26.1284C34.4061 25.496 34.2489 24.8735 33.9486 24.3169L28.8749 15.5581C28.5361 15.0162 28.0677 14.5672 27.512 14.2515C26.9563 13.9359 26.3307 13.7635 25.6917 13.75H15.558C14.919 13.7635 14.2935 13.9359 13.7378 14.2515C13.1821 14.5672 12.7137 15.0162 12.3749 15.5581L7.32862 24.31C7.02716 24.8675 6.8693 25.4912 6.8693 26.125C6.8693 26.7588 7.02716 27.3825 7.32862 27.94ZM21.3124 19.25H23.6361C24.0372 19.2627 24.4273 19.3838 24.7651 19.6005C25.1028 19.8172 25.3755 20.1213 25.5542 20.4806L26.6749 22.77C26.7608 22.9327 26.8132 23.1111 26.8289 23.2944C26.8446 23.4778 26.8234 23.6624 26.7664 23.8374C26.7095 24.0124 26.618 24.1742 26.4973 24.3132C26.3767 24.4522 26.2294 24.5655 26.0642 24.6465C25.8989 24.7275 25.7191 24.7745 25.5354 24.7848C25.3516 24.795 25.1677 24.7683 24.9945 24.7061C24.8213 24.6439 24.6623 24.5477 24.527 24.4229C24.3917 24.2982 24.2828 24.1476 24.2067 23.98L23.2305 22H21.3124C20.9477 22 20.598 21.8551 20.3401 21.5973C20.0822 21.3394 19.9374 20.9897 19.9374 20.625C19.9374 20.2603 20.0822 19.9106 20.3401 19.6527C20.598 19.3949 20.9477 19.25 21.3124 19.25Z" fill="black"/>
<path d="M87.6218 8.73125L83.6686 1.6225C83.385 1.14147 82.9839 0.740282 82.5029 0.456512C82.022 0.172742 81.4768 0.0156694 80.9186 0L73.0536 0C72.4954 0.0156694 71.9503 0.172742 71.4693 0.456512C70.9884 0.740282 70.5873 1.14147 70.3036 1.6225L66.3849 8.73125C66.1317 9.21989 65.9996 9.76218 65.9996 10.3125C65.9996 10.8628 66.1317 11.4051 66.3849 11.8937L70.3311 19.0025C70.6148 19.4835 71.0159 19.8847 71.4968 20.1685C71.9778 20.4523 72.5229 20.6093 73.0811 20.625H80.9668C81.525 20.6093 82.0701 20.4523 82.5511 20.1685C83.032 19.8847 83.4331 19.4835 83.7168 19.0025L87.663 11.8937C87.9098 11.4018 88.0349 10.8578 88.0277 10.3075C88.0205 9.75715 87.8813 9.21658 87.6218 8.73125ZM80.9736 10.89C80.8071 10.9601 80.6283 10.9966 80.4476 10.9976C80.2669 10.9985 80.0878 10.9639 79.9205 10.8955C79.7532 10.8272 79.6011 10.7266 79.4727 10.5994C79.3443 10.4722 79.2423 10.321 79.1724 10.1544L78.3749 8.25H76.3124C75.9477 8.25 75.598 8.10513 75.3401 7.84727C75.0822 7.58941 74.9374 7.23967 74.9374 6.875C74.9374 6.51033 75.0822 6.16059 75.3401 5.90273C75.598 5.64487 75.9477 5.5 76.3124 5.5H78.9936C79.4192 5.53221 79.8243 5.69565 80.1531 5.96778C80.4818 6.23991 80.7181 6.60732 80.8293 7.01938L81.7024 9.08188C81.7737 9.24839 81.8115 9.42736 81.8134 9.6085C81.8154 9.78964 81.7815 9.96939 81.7138 10.1374C81.6461 10.3054 81.5458 10.4584 81.4188 10.5876C81.2918 10.7167 81.1405 10.8195 80.9736 10.89Z" fill="black"/>
<path d="M75.6249 72.4419L80.6986 63.69C80.9989 63.1334 81.1561 62.5109 81.1561 61.8784C81.1561 61.246 80.9989 60.6235 80.6986 60.0669L75.6249 51.3081C75.2861 50.7662 74.8177 50.3172 74.262 50.0015C73.7063 49.6859 73.0807 49.5135 72.4417 49.5H62.308C61.669 49.5135 61.0435 49.6859 60.4878 50.0015C59.9321 50.3172 59.4637 50.7662 59.1249 51.3081L54.0786 60.06C53.7784 60.6166 53.6212 61.2391 53.6212 61.8716C53.6212 62.504 53.7784 63.1265 54.0786 63.6831L59.1249 72.4419C59.4637 72.9838 59.9321 73.4328 60.4878 73.7485C61.0435 74.0641 61.669 74.2365 62.308 74.25H72.4486C73.0864 74.2354 73.7106 74.0625 74.265 73.7469C74.8194 73.4313 75.2867 72.9828 75.6249 72.4419ZM72.7924 60.3625C72.6299 60.4423 72.4533 60.4892 72.2727 60.5006C72.0921 60.512 71.911 60.4876 71.7398 60.4288C71.5686 60.3701 71.4107 60.2781 71.2752 60.1582C71.1396 60.0382 71.0291 59.8927 70.9499 59.73L69.9805 57.75H68.0624C67.6977 57.75 67.348 57.6051 67.0901 57.3473C66.8322 57.0894 66.6874 56.7397 66.6874 56.375C66.6874 56.0103 66.8322 55.6606 67.0901 55.4027C67.348 55.1449 67.6977 55 68.0624 55H70.3861C70.7872 55.0127 71.1773 55.1338 71.5151 55.3505C71.8528 55.5672 72.1255 55.8713 72.3042 56.2306L73.4249 58.52C73.5047 58.6825 73.5516 58.8591 73.563 59.0397C73.5743 59.2203 73.5499 59.4014 73.4912 59.5726C73.4324 59.7438 73.3404 59.9017 73.2205 60.0372C73.1006 60.1728 72.9551 60.2833 72.7924 60.3625Z" fill="black"/>
<path d="M17.6686 68.9975C17.385 68.5165 16.9839 68.1153 16.5029 67.8315C16.022 67.5477 15.4768 67.3907 14.9186 67.375H7.05362C6.49541 67.3907 5.95029 67.5477 5.46933 67.8315C4.98836 68.1153 4.58728 68.5165 4.30362 68.9975L0.384874 76.1062C0.131725 76.5949 -0.000404358 77.1372 -0.000404358 77.6875C-0.000404358 78.2378 0.131725 78.7801 0.384874 79.2688L4.33112 86.3775C4.61478 86.8585 5.01586 87.2597 5.49683 87.5435C5.97779 87.8273 6.52291 87.9843 7.08112 88H14.9461C15.5043 87.9843 16.0495 87.8273 16.5304 87.5435C17.0114 87.2597 17.4125 86.8585 17.6961 86.3775L21.6424 79.2688C21.8955 78.7801 22.0277 78.2378 22.0277 77.6875C22.0277 77.1372 21.8955 76.5949 21.6424 76.1062L17.6686 68.9975ZM14.9668 78.2719C14.8002 78.342 14.6214 78.3785 14.4408 78.3795C14.2601 78.3804 14.0809 78.3457 13.9136 78.2774C13.7464 78.2091 13.5942 78.1085 13.4658 77.9813C13.3374 77.8541 13.2354 77.7029 13.1655 77.5362L12.3749 75.625H10.3124C9.9477 75.625 9.59797 75.4801 9.3401 75.2223C9.08224 74.9644 8.93737 74.6147 8.93737 74.25C8.93737 73.8853 9.08224 73.5356 9.3401 73.2777C9.59797 73.0199 9.9477 72.875 10.3124 72.875H12.9936C13.4192 72.9072 13.8243 73.0706 14.1531 73.3428C14.4818 73.6149 14.7181 73.9823 14.8292 74.3944L15.7024 76.4569C15.7737 76.6234 15.8115 76.8024 15.8134 76.9835C15.8154 77.1646 15.7815 77.3444 15.7138 77.5124C15.6461 77.6804 15.5458 77.8334 15.4188 77.9626C15.2918 78.0917 15.1405 78.1945 14.9736 78.265L14.9668 78.2719Z" fill="black"/>
</svg>
